<svg width="32" height="33" viewBox="0 0 32 33" fill="none" xmlns="http://www.w3.org/2000/svg"><path d="M10.293 2.246 C 10.220 2.276,10.092 2.364,10.009 2.443 C 9.707 2.729,9.684 2.826,9.663 3.880 L 9.643 4.853 7.966 4.853 C 5.779 4.853,5.383 4.931,4.559 5.519 C 3.836 6.035,3.249 6.916,3.083 7.733 C 2.980 8.244,2.980 27.436,3.083 27.947 C 3.187 28.457,3.562 29.193,3.921 29.588 C 4.273 29.976,4.769 30.345,5.187 30.530 C 5.888 30.840,5.414 30.827,16.000 30.827 C 26.586 30.827,26.112 30.840,26.813 30.530 C 27.231 30.345,27.727 29.976,28.079 29.588 C 28.438 29.193,28.813 28.457,28.917 27.947 C 29.020 27.436,29.020 8.244,28.917 7.733 C 28.751 6.916,28.164 6.035,27.441 5.519 C 26.617 4.931,26.221 4.853,24.034 4.853 L 22.357 4.853 22.337 3.880 C 22.316 2.826,22.293 2.728,21.991 2.443 C 21.622 2.094,21.044 2.094,20.675 2.443 C 20.374 2.728,20.351 2.826,20.329 3.880 L 20.310 4.853 16.000 4.853 L 11.690 4.853 11.671 3.880 C 11.649 2.826,11.626 2.728,11.325 2.443 C 11.241 2.365,11.106 2.275,11.023 2.243 C 10.839 2.174,10.473 2.175,10.293 2.246 M9.663 7.800 C 9.684 8.854,9.707 8.952,10.009 9.237 C 10.196 9.414,10.399 9.493,10.667 9.493 C 10.934 9.493,11.137 9.414,11.325 9.237 C 11.626 8.952,11.649 8.854,11.671 7.800 L 11.690 6.827 16.000 6.827 L 20.310 6.827 20.329 7.800 C 20.351 8.854,20.374 8.952,20.675 9.237 C 20.863 9.414,21.066 9.493,21.333 9.493 C 21.601 9.493,21.804 9.414,21.991 9.237 C 22.293 8.951,22.316 8.855,22.337 7.797 L 22.357 6.820 24.045 6.837 C 25.638 6.852,25.747 6.860,25.980 6.967 C 26.345 7.136,26.663 7.451,26.835 7.813 L 26.987 8.133 26.987 10.493 L 26.987 12.853 15.998 12.853 L 5.010 12.853 5.025 10.440 C 5.040 8.028,5.040 8.026,5.165 7.787 C 5.396 7.341,5.782 7.022,6.237 6.899 C 6.402 6.855,6.990 6.833,8.062 6.830 L 9.643 6.827 9.663 7.800 M26.987 21.187 L 26.987 27.547 26.835 27.867 C 26.663 28.229,26.345 28.544,25.980 28.713 L 25.733 28.827 16.000 28.827 L 6.267 28.827 6.020 28.713 C 5.655 28.544,5.337 28.229,5.165 27.867 L 5.013 27.547 5.013 21.187 L 5.013 14.827 16.000 14.827 L 26.987 14.827 26.987 21.187 " stroke="none" fill-rule="evenodd" fill="black"></path></svg>