<svg width="32" height="33" viewBox="0 0 32 33" fill="none" xmlns="http://www.w3.org/2000/svg"><path d="M4.644 4.911 C 3.514 5.134,2.547 5.879,2.052 6.907 C 1.924 7.171,1.789 7.543,1.750 7.733 C 1.647 8.241,1.647 24.769,1.750 25.280 C 1.853 25.795,2.240 26.540,2.619 26.953 C 3.036 27.408,3.625 27.798,4.175 27.985 L 4.613 28.133 16.000 28.133 L 27.387 28.133 27.825 27.985 C 28.375 27.798,28.964 27.408,29.381 26.953 C 29.760 26.540,30.147 25.795,30.250 25.280 C 30.353 24.771,30.353 8.242,30.250 7.733 C 30.147 7.218,29.760 6.474,29.381 6.060 C 28.964 5.605,28.375 5.215,27.825 5.028 L 27.387 4.880 16.133 4.872 C 9.870 4.868,4.775 4.885,4.644 4.911 M27.369 7.002 C 27.535 7.083,27.756 7.244,27.860 7.359 C 28.086 7.610,28.293 7.996,28.231 8.055 C 28.103 8.176,16.046 16.587,16.000 16.587 C 15.954 16.587,3.897 8.176,3.769 8.055 C 3.697 7.987,3.975 7.502,4.206 7.293 C 4.457 7.066,4.666 6.951,4.945 6.885 C 5.061 6.857,9.795 6.840,16.107 6.845 L 27.067 6.853 27.369 7.002 M9.670 14.626 C 12.891 16.881,15.587 18.748,15.660 18.776 C 15.872 18.856,16.228 18.835,16.429 18.730 C 16.530 18.677,19.241 16.792,22.453 14.542 L 28.293 10.450 28.307 17.660 L 28.320 24.870 28.193 25.148 C 28.018 25.531,27.727 25.836,27.369 26.012 L 27.067 26.160 16.000 26.160 L 4.933 26.160 4.687 26.046 C 4.328 25.880,4.026 25.583,3.842 25.214 L 3.680 24.890 3.680 17.668 C 3.680 11.905,3.693 10.455,3.747 10.487 C 3.783 10.509,6.449 12.372,9.670 14.626 " stroke="none" fill-rule="evenodd" fill="black"></path></svg>