<svg width="24" height="24" viewBox="0 0 24 24" fill="none" xmlns="http://www.w3.org/2000/svg"><path d="M6.013 1.040 C 5.184 1.161,4.334 1.645,3.807 2.296 C 3.534 2.631,3.270 3.137,3.136 3.580 C 3.037 3.903,3.026 4.001,3.026 4.540 C 3.026 5.077,3.038 5.177,3.133 5.492 C 3.331 6.139,3.629 6.626,4.106 7.082 C 4.441 7.404,4.677 7.567,5.059 7.743 L 5.352 7.879 5.370 8.869 C 5.386 9.801,5.393 9.881,5.494 10.212 C 5.882 11.491,6.856 12.404,8.159 12.709 C 8.357 12.756,8.759 12.775,9.830 12.789 L 11.240 12.808 11.240 14.476 L 11.240 16.144 11.033 16.219 C 10.714 16.333,10.159 16.727,9.850 17.057 C 8.565 18.434,8.576 20.544,9.876 21.894 C 10.346 22.382,10.868 22.693,11.544 22.888 C 11.810 22.964,11.951 22.978,12.440 22.976 C 12.952 22.973,13.062 22.960,13.380 22.864 C 14.124 22.639,14.735 22.233,15.184 21.665 C 16.612 19.860,15.987 17.221,13.904 16.258 L 13.600 16.118 13.600 14.463 L 13.600 12.808 15.030 12.789 C 16.534 12.769,16.660 12.755,17.200 12.556 C 17.716 12.366,18.296 11.965,18.625 11.572 C 19.314 10.747,19.518 10.049,19.521 8.506 L 19.523 7.860 19.831 7.720 C 20.819 7.272,21.555 6.327,21.786 5.208 C 21.873 4.790,21.842 3.973,21.724 3.581 C 21.353 2.343,20.430 1.445,19.183 1.112 C 18.718 0.987,17.916 0.989,17.440 1.116 C 16.232 1.437,15.333 2.301,14.940 3.520 C 14.796 3.966,14.757 4.738,14.854 5.208 C 15.089 6.345,15.835 7.287,16.862 7.746 L 17.118 7.860 17.119 8.700 C 17.119 9.498,17.114 9.550,17.026 9.740 C 16.909 9.990,16.636 10.244,16.378 10.344 C 16.188 10.417,16.022 10.420,12.400 10.420 L 8.620 10.420 8.393 10.308 C 8.146 10.187,7.972 10.014,7.830 9.749 C 7.746 9.591,7.739 9.523,7.727 8.719 L 7.715 7.858 7.925 7.782 C 8.464 7.588,9.210 6.940,9.560 6.360 C 9.772 6.009,9.983 5.406,10.043 4.979 C 10.159 4.166,9.915 3.191,9.424 2.503 C 9.190 2.175,8.677 1.698,8.356 1.509 C 7.658 1.098,6.796 0.926,6.013 1.040 M7.064 3.492 C 7.747 3.839,7.915 4.747,7.403 5.330 C 6.992 5.798,6.184 5.826,5.726 5.388 C 5.414 5.089,5.292 4.613,5.418 4.181 C 5.507 3.874,5.849 3.518,6.144 3.423 C 6.426 3.333,6.808 3.362,7.064 3.492 M18.728 3.439 C 19.025 3.550,19.214 3.721,19.357 4.007 C 19.816 4.925,18.971 5.950,17.992 5.665 C 17.708 5.583,17.384 5.300,17.254 5.021 C 17.111 4.713,17.122 4.329,17.283 4.007 C 17.350 3.872,17.472 3.707,17.553 3.640 C 17.878 3.372,18.338 3.293,18.728 3.439 M12.953 18.416 C 13.332 18.608,13.600 19.040,13.600 19.457 C 13.600 19.785,13.492 20.034,13.243 20.284 C 13.058 20.468,12.966 20.528,12.779 20.582 C 11.915 20.833,11.098 20.098,11.278 19.232 C 11.435 18.472,12.266 18.068,12.953 18.416 " fill="#222222" stroke="none" fill-rule="evenodd"></path></svg>