<svg width="24" height="24" viewBox="0 0 24 24" fill="none" xmlns="http://www.w3.org/2000/svg"><path d="M11.069 1.039 C 8.820 1.258,6.868 2.041,5.100 3.434 C 4.732 3.724,3.717 4.740,3.417 5.120 C 2.191 6.671,1.420 8.452,1.115 10.440 C 0.987 11.274,0.987 12.726,1.115 13.560 C 1.424 15.574,2.173 17.299,3.434 18.900 C 3.718 19.261,4.739 20.282,5.100 20.566 C 6.701 21.827,8.426 22.576,10.440 22.885 C 11.274 23.013,12.726 23.013,13.560 22.885 C 16.034 22.506,18.163 21.421,19.861 19.674 C 21.264 18.231,22.174 16.606,22.660 14.680 C 22.903 13.718,22.973 13.113,22.973 12.000 C 22.973 10.887,22.903 10.282,22.660 9.320 C 22.004 6.720,20.443 4.471,18.240 2.951 C 16.831 1.979,15.294 1.376,13.580 1.121 C 12.946 1.026,11.639 0.984,11.069 1.039 M13.440 3.113 C 15.028 3.384,16.553 4.076,17.720 5.053 C 19.227 6.316,20.270 7.969,20.738 9.837 C 20.930 10.603,20.979 11.039,20.979 12.000 C 20.979 12.961,20.930 13.397,20.738 14.163 C 20.419 15.437,19.751 16.762,18.946 17.720 C 17.672 19.235,16.031 20.270,14.163 20.738 C 13.397 20.930,12.961 20.979,12.000 20.979 C 11.039 20.979,10.603 20.930,9.837 20.738 C 8.566 20.420,7.248 19.756,6.280 18.948 C 5.259 18.095,4.515 17.152,3.939 15.980 C 3.504 15.096,3.254 14.316,3.094 13.340 C 2.992 12.721,2.992 11.279,3.094 10.660 C 3.358 9.050,4.031 7.527,5.008 6.330 C 5.833 5.319,6.848 4.513,8.020 3.938 C 9.063 3.426,10.039 3.147,11.220 3.025 C 11.626 2.982,12.995 3.037,13.440 3.113 M11.673 7.063 C 11.312 7.174,11.000 7.609,11.000 8.000 C 11.000 8.402,11.312 8.827,11.690 8.939 C 11.945 9.015,12.054 9.015,12.303 8.941 C 13.224 8.666,13.224 7.334,12.303 7.059 C 12.062 6.987,11.917 6.988,11.673 7.063 M11.673 11.063 C 11.412 11.143,11.140 11.421,11.061 11.690 C 10.970 11.994,10.970 16.006,11.061 16.310 C 11.173 16.688,11.598 17.000,12.000 17.000 C 12.237 17.000,12.514 16.880,12.697 16.697 C 13.002 16.391,13.000 16.411,13.000 14.000 C 13.000 11.589,13.002 11.609,12.697 11.303 C 12.418 11.024,12.067 10.942,11.673 11.063 " stroke="none" fill-rule="evenodd" fill="black"></path></svg>