<svg width="32" height="33" viewBox="0 0 32 33" fill="none" xmlns="http://www.w3.org/2000/svg"><path d="M19.616 0.962 C 19.508 1.019,19.352 1.154,19.270 1.262 C 19.138 1.435,19.120 1.504,19.120 1.840 C 19.120 2.179,19.137 2.244,19.274 2.424 C 19.466 2.676,19.745 2.800,20.293 2.879 C 22.191 3.152,24.107 3.982,25.600 5.176 C 26.454 5.860,27.403 6.902,27.953 7.760 C 28.849 9.158,29.352 10.491,29.625 12.182 C 29.725 12.804,29.818 13.024,30.060 13.208 C 30.456 13.511,31.006 13.474,31.360 13.120 C 31.659 12.821,31.698 12.586,31.576 11.810 C 31.353 10.396,31.022 9.352,30.374 8.027 C 28.539 4.274,25.027 1.662,20.876 0.961 C 20.092 0.829,19.868 0.829,19.616 0.962 M4.720 2.264 C 3.610 2.510,2.697 3.228,2.220 4.228 C 1.808 5.090,1.752 5.568,1.917 6.800 C 2.439 10.687,3.677 14.237,5.619 17.413 C 8.171 21.587,11.035 24.452,15.147 26.943 C 18.329 28.870,21.820 30.104,25.547 30.618 C 27.326 30.863,28.253 30.620,29.231 29.653 C 29.697 29.193,29.987 28.712,30.181 28.081 C 30.310 27.660,30.313 27.616,30.334 25.317 C 30.348 23.840,30.335 22.825,30.300 22.560 C 30.187 21.719,29.883 21.095,29.279 20.460 C 28.648 19.798,28.082 19.530,26.894 19.332 C 25.852 19.159,25.010 18.949,23.885 18.583 C 22.987 18.291,22.943 18.282,22.373 18.284 C 21.199 18.286,20.501 18.620,19.353 19.725 L 18.614 20.437 18.360 20.289 C 18.221 20.207,17.855 19.960,17.547 19.739 C 15.527 18.293,13.496 16.172,12.261 14.218 L 12.060 13.900 12.730 13.208 C 13.525 12.388,13.848 11.917,14.058 11.272 C 14.194 10.854,14.212 10.723,14.212 10.133 C 14.212 9.471,14.210 9.461,13.934 8.640 C 13.582 7.594,13.382 6.806,13.201 5.760 C 12.964 4.388,12.773 3.963,12.084 3.280 C 11.605 2.805,11.240 2.569,10.658 2.356 L 10.267 2.213 7.653 2.203 C 5.638 2.195,4.967 2.209,4.720 2.264 M10.160 4.309 C 10.470 4.452,10.848 4.799,10.984 5.067 C 11.088 5.272,11.162 5.577,11.257 6.187 C 11.400 7.114,11.606 7.925,12.036 9.253 C 12.246 9.902,12.273 10.038,12.244 10.289 C 12.181 10.829,12.063 10.997,10.991 12.080 C 10.439 12.637,9.949 13.170,9.901 13.264 C 9.852 13.359,9.813 13.561,9.813 13.720 C 9.813 13.965,9.851 14.071,10.087 14.482 C 11.323 16.640,13.236 18.869,15.243 20.490 C 16.098 21.180,16.703 21.607,17.658 22.197 C 18.922 22.979,18.947 22.973,20.453 21.493 C 21.356 20.606,21.560 20.431,21.783 20.356 C 22.212 20.210,22.566 20.240,23.282 20.482 C 24.186 20.788,25.395 21.092,26.343 21.253 C 26.790 21.328,27.261 21.440,27.391 21.501 C 27.708 21.650,28.129 22.119,28.237 22.445 C 28.312 22.671,28.321 23.013,28.308 25.125 C 28.293 27.545,28.293 27.547,28.169 27.787 C 27.901 28.304,27.381 28.678,26.859 28.730 C 26.709 28.744,26.227 28.706,25.787 28.644 C 21.876 28.095,18.359 26.740,14.987 24.482 C 11.225 21.963,8.321 18.615,6.267 14.427 C 5.057 11.960,4.287 9.450,3.922 6.785 C 3.764 5.627,3.831 5.213,4.252 4.744 C 4.507 4.461,4.771 4.298,5.106 4.217 C 5.216 4.190,6.339 4.173,7.600 4.178 C 9.870 4.187,9.896 4.188,10.160 4.309 M19.651 6.287 C 19.533 6.341,19.372 6.461,19.293 6.554 C 18.935 6.980,19.081 7.773,19.563 8.021 C 19.642 8.062,19.911 8.149,20.160 8.215 C 22.218 8.762,23.723 10.258,24.271 12.301 C 24.356 12.620,24.470 12.940,24.525 13.013 C 24.870 13.480,25.535 13.561,25.977 13.189 C 26.344 12.880,26.393 12.497,26.168 11.676 C 25.432 8.985,23.262 6.895,20.548 6.266 C 20.104 6.163,19.914 6.167,19.651 6.287 " stroke="none" fill-rule="evenodd" fill="black"></path></svg>