<svg width="25" height="24" viewBox="0 0 25 24" fill="none" xmlns="http://www.w3.org/2000/svg"><path d="M12.250 0.037 C 11.956 0.133,11.744 0.311,11.599 0.583 C 11.528 0.716,11.521 0.840,11.521 2.000 C 11.521 3.223,11.524 3.277,11.611 3.438 C 11.804 3.796,12.102 3.976,12.500 3.976 C 12.898 3.976,13.196 3.796,13.389 3.438 C 13.476 3.277,13.479 3.223,13.479 2.000 C 13.479 0.608,13.479 0.604,13.214 0.319 C 12.992 0.080,12.530 -0.055,12.250 0.037 M4.504 3.255 C 3.885 3.371,3.545 4.120,3.850 4.697 C 3.883 4.761,4.301 5.199,4.778 5.672 C 5.739 6.624,5.780 6.651,6.232 6.614 C 6.723 6.575,7.075 6.221,7.115 5.726 C 7.151 5.272,7.112 5.213,6.115 4.223 C 5.221 3.335,5.162 3.291,4.813 3.239 C 4.744 3.229,4.605 3.236,4.504 3.255 M20.097 3.254 C 20.001 3.272,19.870 3.314,19.805 3.348 C 19.740 3.382,19.301 3.801,18.828 4.278 C 17.876 5.239,17.849 5.280,17.886 5.732 C 17.925 6.220,18.280 6.575,18.768 6.614 C 19.219 6.651,19.261 6.624,20.224 5.672 C 21.179 4.727,21.258 4.615,21.258 4.208 C 21.258 3.586,20.715 3.140,20.097 3.254 M11.854 6.046 C 8.635 6.381,6.236 9.299,6.538 12.513 C 6.714 14.387,7.663 15.983,9.208 17.007 C 11.176 18.310,13.824 18.310,15.792 17.007 C 18.315 15.336,19.196 12.105,17.878 9.362 C 16.799 7.119,14.374 5.784,11.854 6.046 M13.271 8.079 C 14.610 8.357,15.712 9.272,16.211 10.520 C 16.810 12.019,16.442 13.741,15.284 14.860 C 13.472 16.612,10.551 16.293,9.163 14.191 C 7.949 12.354,8.461 9.883,10.309 8.663 C 11.180 8.087,12.273 7.872,13.271 8.079 M1.250 11.038 C 0.788 11.184,0.524 11.533,0.524 12.000 C 0.524 12.398,0.704 12.696,1.063 12.889 C 1.223 12.976,1.277 12.979,2.500 12.979 C 3.892 12.979,3.896 12.979,4.181 12.714 C 4.583 12.341,4.583 11.659,4.181 11.286 C 3.899 11.024,3.882 11.022,2.563 11.013 C 1.898 11.008,1.307 11.020,1.250 11.038 M21.250 11.038 C 20.788 11.184,20.524 11.533,20.524 12.000 C 20.524 12.398,20.704 12.696,21.063 12.889 C 21.223 12.976,21.277 12.979,22.500 12.979 C 23.660 12.979,23.784 12.972,23.917 12.901 C 24.291 12.702,24.476 12.404,24.476 12.000 C 24.476 11.596,24.291 11.298,23.917 11.099 C 23.785 11.028,23.652 11.020,22.563 11.013 C 21.898 11.008,21.307 11.020,21.250 11.038 M5.729 17.452 C 5.628 17.501,5.227 17.872,4.703 18.402 C 3.776 19.340,3.737 19.396,3.741 19.816 C 3.746 20.345,4.170 20.758,4.708 20.758 C 5.115 20.758,5.227 20.679,6.172 19.724 C 7.124 18.761,7.151 18.719,7.114 18.268 C 7.089 17.953,6.943 17.709,6.670 17.526 C 6.428 17.363,5.985 17.328,5.729 17.452 M18.563 17.404 C 18.415 17.435,18.150 17.644,18.027 17.828 C 17.883 18.041,17.834 18.433,17.917 18.692 C 17.988 18.915,19.602 20.554,19.870 20.676 C 20.511 20.967,21.253 20.508,21.259 19.816 C 21.263 19.396,21.224 19.340,20.297 18.402 C 19.754 17.853,19.376 17.504,19.271 17.455 C 19.114 17.382,18.782 17.358,18.563 17.404 M12.250 20.037 C 11.956 20.133,11.744 20.311,11.599 20.583 C 11.528 20.716,11.521 20.840,11.521 22.000 C 11.521 23.223,11.524 23.277,11.611 23.438 C 11.804 23.796,12.102 23.976,12.500 23.976 C 12.898 23.976,13.196 23.796,13.389 23.438 C 13.476 23.277,13.479 23.223,13.479 22.000 C 13.479 20.608,13.479 20.604,13.214 20.319 C 12.992 20.080,12.530 19.945,12.250 20.037 " stroke="none" fill-rule="evenodd" fill="black"></path></svg>