<svg width="25" height="24" viewBox="0 0 25 24" fill="none" xmlns="http://www.w3.org/2000/svg"><path d="M11.583 2.045 C 8.543 2.333,5.843 3.944,4.165 6.470 C 1.506 10.474,2.088 15.811,5.547 19.148 C 7.086 20.632,9.026 21.573,11.188 21.883 C 11.678 21.953,13.281 21.953,13.771 21.883 C 17.141 21.400,19.971 19.359,21.440 16.354 C 21.902 15.410,22.230 14.335,22.383 13.271 C 22.414 13.055,22.437 12.506,22.437 11.979 C 22.437 11.452,22.414 10.903,22.383 10.688 C 21.849 6.963,19.389 3.894,15.906 2.607 C 14.599 2.124,12.975 1.913,11.583 2.045 M13.854 4.126 C 17.356 4.721,20.053 7.630,20.415 11.202 C 20.783 14.844,18.563 18.316,15.099 19.514 C 14.371 19.766,13.336 19.958,12.710 19.958 L 12.500 19.958 12.500 11.973 L 12.500 3.989 12.948 4.018 C 13.194 4.034,13.602 4.083,13.854 4.126 " fill="#222222" stroke="none" fill-rule="evenodd"></path></svg>