<svg width="32" height="33" viewBox="0 0 32 33" fill="none" xmlns="http://www.w3.org/2000/svg"><path d="M14.587 2.243 C 11.313 2.578,8.280 4.008,5.941 6.320 C 3.620 8.615,2.192 11.509,1.783 14.752 C 1.668 15.665,1.668 17.348,1.783 18.262 C 2.190 21.488,3.612 24.383,5.914 26.669 C 8.166 28.907,10.931 30.259,14.213 30.730 C 14.849 30.821,17.151 30.821,17.787 30.730 C 21.069 30.259,23.846 28.901,26.085 26.669 C 28.433 24.329,29.857 21.386,30.241 18.080 C 30.334 17.281,30.321 15.581,30.217 14.752 C 29.811 11.527,28.388 8.631,26.086 6.345 C 23.887 4.160,21.184 2.810,18.027 2.320 C 17.360 2.217,15.295 2.170,14.587 2.243 M13.707 4.395 C 13.707 4.406,13.548 4.648,13.355 4.931 C 11.450 7.720,10.171 11.181,9.814 14.507 C 9.781 14.815,9.742 15.169,9.727 15.293 L 9.700 15.520 6.709 15.520 L 3.718 15.520 3.750 15.099 C 3.823 14.158,4.194 12.740,4.642 11.696 C 6.166 8.145,9.208 5.522,12.920 4.560 C 13.652 4.371,13.707 4.359,13.707 4.395 M19.200 4.596 C 20.664 4.975,22.152 5.705,23.467 6.688 C 24.150 7.198,25.323 8.378,25.847 9.080 C 26.858 10.435,27.566 11.917,27.969 13.520 C 28.128 14.153,28.266 14.977,28.266 15.293 L 28.267 15.520 25.283 15.520 L 22.300 15.520 22.272 15.293 C 22.256 15.169,22.217 14.815,22.185 14.507 C 21.839 11.208,20.550 7.720,18.645 4.931 C 18.452 4.648,18.293 4.406,18.293 4.393 C 18.293 4.366,18.436 4.397,19.200 4.596 M16.496 5.347 C 18.200 7.627,19.404 10.341,19.969 13.173 C 20.114 13.904,20.267 15.000,20.267 15.318 L 20.267 15.520 16.000 15.520 L 11.733 15.520 11.733 15.318 C 11.733 15.000,11.886 13.904,12.031 13.173 C 12.489 10.875,13.337 8.724,14.578 6.709 C 15.045 5.951,15.917 4.747,16.000 4.747 C 16.026 4.747,16.249 5.017,16.496 5.347 M9.728 17.720 C 9.744 17.845,9.783 18.199,9.815 18.507 C 10.161 21.806,11.450 25.293,13.356 28.084 C 13.550 28.369,13.700 28.611,13.689 28.622 C 13.678 28.633,13.347 28.560,12.954 28.459 C 9.219 27.500,6.172 24.882,4.642 21.317 C 4.194 20.273,3.823 18.856,3.750 17.915 L 3.718 17.493 6.709 17.493 L 9.700 17.493 9.728 17.720 M20.267 17.696 C 20.267 18.014,20.114 19.109,19.969 19.840 C 19.505 22.167,18.619 24.398,17.363 26.399 C 16.905 27.129,16.075 28.267,16.000 28.267 C 15.917 28.267,15.045 27.062,14.578 26.304 C 13.337 24.289,12.489 22.138,12.031 19.840 C 11.886 19.109,11.733 18.014,11.733 17.696 L 11.733 17.493 16.000 17.493 L 20.267 17.493 20.267 17.696 M28.266 17.720 C 28.266 18.037,28.128 18.862,27.969 19.492 C 27.413 21.701,26.328 23.602,24.696 25.227 C 23.392 26.525,22.084 27.376,20.373 28.038 C 19.803 28.259,18.357 28.668,18.311 28.622 C 18.300 28.611,18.450 28.369,18.644 28.084 C 20.314 25.638,21.538 22.594,22.023 19.680 C 22.105 19.191,22.282 17.762,22.293 17.507 C 22.293 17.499,23.637 17.493,25.280 17.493 L 28.267 17.493 28.266 17.720 " stroke="none" fill-rule="evenodd" fill="black"></path></svg>