<svg width="25" height="24" viewBox="0 0 25 24" fill="none" xmlns="http://www.w3.org/2000/svg"><path d="M11.188 2.061 C 7.798 2.525,4.862 4.701,3.458 7.790 C 1.588 11.904,2.667 16.729,6.097 19.596 C 7.591 20.844,9.156 21.547,11.137 21.861 C 11.777 21.963,13.291 21.964,13.926 21.863 C 17.474 21.302,20.334 19.118,21.721 15.914 C 22.203 14.801,22.583 13.062,22.458 12.542 C 22.367 12.163,22.003 11.854,21.586 11.805 C 21.318 11.773,21.142 11.838,20.690 12.135 C 20.014 12.579,19.271 12.884,18.417 13.068 C 17.887 13.182,16.754 13.172,16.180 13.049 C 14.314 12.649,12.829 11.516,11.988 9.853 C 11.006 7.910,11.148 5.661,12.372 3.799 C 12.683 3.327,12.746 3.107,12.669 2.765 C 12.625 2.567,12.579 2.491,12.402 2.314 C 12.081 1.996,11.917 1.962,11.188 2.061 M9.774 4.552 C 9.407 5.815,9.299 6.674,9.377 7.720 C 9.523 9.676,10.326 11.443,11.692 12.808 C 12.350 13.467,12.996 13.922,13.885 14.356 C 15.570 15.177,17.479 15.366,19.338 14.895 C 19.573 14.835,19.828 14.760,19.904 14.729 C 19.986 14.694,20.042 14.688,20.042 14.713 C 20.042 14.797,19.752 15.447,19.562 15.789 C 17.791 18.978,14.224 20.570,10.696 19.745 C 7.728 19.052,5.394 16.686,4.735 13.703 C 4.570 12.956,4.528 12.489,4.554 11.694 C 4.593 10.461,4.835 9.506,5.394 8.372 C 6.156 6.827,7.440 5.556,9.021 4.782 C 9.776 4.412,9.819 4.399,9.774 4.552 " stroke="none" fill-rule="evenodd" fill="black"></path></svg>